<svg width="957" height="862" viewBox="0 0 957 862" fill="none" xmlns="http://www.w3.org/2000/svg">
<g filter="url(#filter0_d_204_2)">
<path d="M947.924 833.047V722.627C947.924 716 942.551 710.627 935.924 710.627L855.647 709.627C846.897 709.627 841.089 700.565 844.743 692.616L909.957 550.738C910.268 550.062 910.515 549.36 910.695 548.638L935.565 449.217C935.804 448.265 935.924 447.287 935.924 446.305V297.48C935.924 295.763 935.556 294.066 934.844 292.503L891.054 196.414C890.31 194.782 889.21 193.337 887.834 192.186L759.301 84.6525C758.388 83.8885 757.366 83.2646 756.27 82.8015L617.36 24.142C616.407 23.7395 615.405 23.462 614.381 23.3163L492.614 5.9948L482.424 5H473.924H463.301C463.254 5 463.207 5.00335 463.16 5.01001L341.47 22.3618C340.444 22.5081 339.441 22.7868 338.486 23.1908L199.58 81.9885C198.482 82.4531 197.46 83.0786 196.547 83.8445L68.0104 191.637C66.6369 192.789 65.539 194.233 64.7972 195.865L21 292.2C20.2909 293.76 19.9241 295.453 19.9241 297.167V446.365C19.9241 447.345 20.044 448.32 20.2811 449.271L45.154 548.939C45.3336 549.659 45.5797 550.361 45.889 551.036L111.128 693.305C114.773 701.254 108.965 710.307 100.22 710.307H21C14.3726 710.307 9 715.68 9 722.307V833.047C9 839.675 14.3726 845.047 21 845.047H373.068C379.695 845.047 385.068 839.675 385.068 833.047V722.307C385.068 715.68 379.695 710.307 373.068 710.307H223.459C219.662 710.307 216.09 708.51 213.826 705.462L169.151 645.312C163.27 637.395 168.922 626.157 178.784 626.157H193.306C200.872 626.157 206.55 619.241 205.076 611.819L169.843 434.461C168.728 428.844 163.799 424.799 158.073 424.799H100.574C93.1637 424.799 87.5246 418.15 88.7347 410.839L116.505 243.065C117.751 235.537 125.614 231.068 132.719 233.85L211.185 264.575C215.063 266.093 219.45 265.493 222.777 262.988L385.683 140.363C391.408 136.054 392.105 127.721 387.176 122.52L365.809 99.9767C359.03 92.824 363.285 81.0012 373.068 79.8098L466.375 68.4464H472.924H483.424L489.477 69.2914L582.736 80.6221C592.527 81.8117 596.782 93.6492 589.988 100.8L568.705 123.201C563.763 128.404 564.461 136.753 570.199 141.062L733.079 263.376C736.402 265.872 740.78 266.47 744.651 264.958L823.141 234.297C830.243 231.523 838.098 235.989 839.346 243.511L867.107 410.833C868.32 418.145 862.681 424.797 855.269 424.797H797.77C792.046 424.797 787.119 428.84 786.001 434.453L750.78 611.334C749.302 618.757 754.981 625.677 762.549 625.677H777.03C786.899 625.677 792.549 636.927 786.655 644.843L742.023 704.793C739.758 707.835 736.19 709.627 732.398 709.627H575.333C568.705 709.627 563.333 715 563.333 721.627V832.047C563.333 838.675 568.705 844.047 575.333 844.047L935.924 845.047C942.551 845.047 947.924 839.675 947.924 833.047Z" fill="#FF5C00"/>
<path d="M947.924 833.047V722.627C947.924 716 942.551 710.627 935.924 710.627L855.647 709.627C846.897 709.627 841.089 700.565 844.743 692.616L909.957 550.738C910.268 550.062 910.515 549.36 910.695 548.638L935.565 449.217C935.804 448.265 935.924 447.287 935.924 446.305V297.48C935.924 295.763 935.556 294.066 934.844 292.503L891.054 196.414C890.31 194.782 889.21 193.337 887.834 192.186L759.301 84.6525C758.388 83.8885 757.366 83.2646 756.27 82.8015L617.36 24.142C616.407 23.7395 615.405 23.462 614.381 23.3163L492.614 5.9948L482.424 5H473.924H463.301C463.254 5 463.207 5.00335 463.16 5.01001L341.47 22.3618C340.444 22.5081 339.441 22.7868 338.486 23.1908L199.58 81.9885C198.482 82.4531 197.46 83.0786 196.547 83.8445L68.0104 191.637C66.6369 192.789 65.539 194.233 64.7972 195.865L21 292.2C20.2909 293.76 19.9241 295.453 19.9241 297.167V446.365C19.9241 447.345 20.044 448.32 20.2811 449.271L45.154 548.939C45.3336 549.659 45.5797 550.361 45.889 551.036L111.128 693.305C114.773 701.254 108.965 710.307 100.22 710.307H21C14.3726 710.307 9 715.68 9 722.307V833.047C9 839.675 14.3726 845.047 21 845.047H373.068C379.695 845.047 385.068 839.675 385.068 833.047V722.307C385.068 715.68 379.695 710.307 373.068 710.307H223.459C219.662 710.307 216.09 708.51 213.826 705.462L169.151 645.312C163.27 637.395 168.922 626.157 178.784 626.157H193.306C200.872 626.157 206.55 619.241 205.076 611.819L169.843 434.461C168.728 428.844 163.799 424.799 158.073 424.799H100.574C93.1637 424.799 87.5246 418.15 88.7347 410.839L116.505 243.065C117.751 235.537 125.614 231.068 132.719 233.85L211.185 264.575C215.063 266.093 219.45 265.493 222.777 262.988L385.683 140.363C391.408 136.054 392.105 127.721 387.176 122.52L365.809 99.9767C359.03 92.824 363.285 81.0012 373.068 79.8098L466.375 68.4464H472.924H483.424L489.477 69.2914L582.736 80.6221C592.527 81.8117 596.782 93.6492 589.988 100.8L568.705 123.201C563.763 128.404 564.461 136.753 570.199 141.062L733.079 263.376C736.402 265.872 740.78 266.47 744.651 264.958L823.141 234.297C830.243 231.523 838.098 235.989 839.346 243.511L867.107 410.833C868.32 418.145 862.681 424.797 855.269 424.797H797.77C792.046 424.797 787.119 428.84 786.001 434.453L750.78 611.334C749.302 618.757 754.981 625.677 762.549 625.677H777.03C786.899 625.677 792.549 636.927 786.655 644.843L742.023 704.793C739.758 707.835 736.19 709.627 732.398 709.627H575.333C568.705 709.627 563.333 715 563.333 721.627V832.047C563.333 838.675 568.705 844.047 575.333 844.047L935.924 845.047C942.551 845.047 947.924 839.675 947.924 833.047Z" stroke="black" stroke-width="10"/>
</g>
<defs>
<filter id="filter0_d_204_2" x="0" y="0" width="956.924" height="861.047" filterUnits="userSpaceOnUse" color-interpolation-filters="sRGB">
<feFlood flood-opacity="0" result="BackgroundImageFix"/>
<feColorMatrix in="SourceAlpha" type="matrix" values="0 0 0 0 0 0 0 0 0 0 0 0 0 0 0 0 0 0 127 0" result="hardAlpha"/>
<feOffset dy="7"/>
<feGaussianBlur stdDeviation="2"/>
<feComposite in2="hardAlpha" operator="out"/>
<feColorMatrix type="matrix" values="0 0 0 0 0 0 0 0 0 0 0 0 0 0 0 0 0 0 0.99 0"/>
<feBlend mode="normal" in2="BackgroundImageFix" result="effect1_dropShadow_204_2"/>
<feBlend mode="normal" in="SourceGraphic" in2="effect1_dropShadow_204_2" result="shape"/>
</filter>
</defs>
</svg>
