{
  "accessors": [
    {
      "bufferView": 0,
      "componentType": 5125,
      "count": 1880064,
      "type": "SCALAR"
    },
    {
      "bufferView": 1,
      "componentType": 5126,
      "count": 1256040,
      "max": [
        41.9159393310547,
        0.233232945203781,
        41.0889663696289
      ],
      "min": [
        -0.0699996948242188,
        -0.393232941627502,
        -1.48421287536621
      ],
      "type": "VEC3"
    },
    {
      "bufferView": 2,
      "componentType": 5126,
      "count": 1256040,
      "type": "VEC3"
    },
    {
      "bufferView": 3,
      "componentType": 5126,
      "count": 1256040,
      "type": "VEC4"
    },
    {
      "bufferView": 4,
      "componentType": 5126,
      "count": 1256040,
      "type": "VEC2"
    },
    {
      "bufferView": 5,
      "componentType": 5125,
      "count": 372,
      "type": "SCALAR"
    },
    {
      "bufferView": 6,
      "componentType": 5126,
      "count": 134,
      "max": [
        1.00001525878906,
        1.00000011920929,
        1.0
      ],
      "min": [
        -1.00001525878906,
        -1.0,
        -1.00000011920929
      ],
      "type": "VEC3"
    },
    {
      "bufferView": 7,
      "componentType": 5126,
      "count": 134,
      "type": "VEC3"
    },
    {
      "bufferView": 8,
      "componentType": 5126,
      "count": 134,
      "type": "VEC4"
    },
    {
      "bufferView": 9,
      "componentType": 5126,
      "count": 134,
      "type": "VEC2"
    },
    {
      "bufferView": 10,
      "componentType": 5125,
      "count": 372,
      "type": "SCALAR"
    },
    {
      "bufferView": 11,
      "componentType": 5126,
      "count": 136,
      "max": [
        1.00003051757812,
        1.00000011920929,
        0.999999821186066
      ],
      "min": [
        -1.0,
        -1.00000011920929,
        -1.00000011920929
      ],
      "type": "VEC3"
    },
    {
      "bufferView": 12,
      "componentType": 5126,
      "count": 136,
      "type": "VEC3"
    },
    {
      "bufferView": 13,
      "componentType": 5126,
      "count": 136,
      "type": "VEC4"
    },
    {
      "bufferView": 14,
      "componentType": 5126,
      "count": 136,
      "type": "VEC2"
    },
    {
      "bufferView": 15,
      "componentType": 5125,
      "count": 372,
      "type": "SCALAR"
    },
    {
      "bufferView": 16,
      "componentType": 5126,
      "count": 136,
      "max": [
        0.999984741210938,
        1.0,
        0.999999761581421
      ],
      "min": [
        -1.0,
        -1.00000011920929,
        -1.0
      ],
      "type": "VEC3"
    },
    {
      "bufferView": 17,
      "componentType": 5126,
      "count": 136,
      "type": "VEC3"
    },
    {
      "bufferView": 18,
      "componentType": 5126,
      "count": 136,
      "type": "VEC4"
    },
    {
      "bufferView": 19,
      "componentType": 5126,
      "count": 136,
      "type": "VEC2"
    }
  ],
  "asset": {
    "generator": "Adobe Substance 3D Painter 8.1.0",
    "version": "2.0"
  },
  "bufferViews": [
    {
      "buffer": 0,
      "byteLength": 7520256,
      "target": 34963
    },
    {
      "buffer": 0,
      "byteLength": 15072480,
      "byteOffset": 7520256,
      "target": 34962
    },
    {
      "buffer": 0,
      "byteLength": 15072480,
      "byteOffset": 22592736,
      "target": 34962
    },
    {
      "buffer": 0,
      "byteLength": 20096640,
      "byteOffset": 37665216,
      "target": 34962
    },
    {
      "buffer": 0,
      "byteLength": 10048320,
      "byteOffset": 57761856,
      "target": 34962
    },
    {
      "buffer": 0,
      "byteLength": 1488,
      "byteOffset": 67810176,
      "target": 34963
    },
    {
      "buffer": 0,
      "byteLength": 1608,
      "byteOffset": 67811664,
      "target": 34962
    },
    {
      "buffer": 0,
      "byteLength": 1608,
      "byteOffset": 67813272,
      "target": 34962
    },
    {
      "buffer": 0,
      "byteLength": 2144,
      "byteOffset": 67814880,
      "target": 34962
    },
    {
      "buffer": 0,
      "byteLength": 1072,
      "byteOffset": 67817024,
      "target": 34962
    },
    {
      "buffer": 0,
      "byteLength": 1488,
      "byteOffset": 67818096,
      "target": 34963
    },
    {
      "buffer": 0,
      "byteLength": 1632,
      "byteOffset": 67819584,
      "target": 34962
    },
    {
      "buffer": 0,
      "byteLength": 1632,
      "byteOffset": 67821216,
      "target": 34962
    },
    {
      "buffer": 0,
      "byteLength": 2176,
      "byteOffset": 67822848,
      "target": 34962
    },
    {
      "buffer": 0,
      "byteLength": 1088,
      "byteOffset": 67825024,
      "target": 34962
    },
    {
      "buffer": 0,
      "byteLength": 1488,
      "byteOffset": 67826112,
      "target": 34963
    },
    {
      "buffer": 0,
      "byteLength": 1632,
      "byteOffset": 67827600,
      "target": 34962
    },
    {
      "buffer": 0,
      "byteLength": 1632,
      "byteOffset": 67829232,
      "target": 34962
    },
    {
      "buffer": 0,
      "byteLength": 2176,
      "byteOffset": 67830864,
      "target": 34962
    },
    {
      "buffer": 0,
      "byteLength": 1088,
      "byteOffset": 67833040,
      "target": 34962
    }
  ],
  "buffers": [
    {
      "byteLength": 67834128,
      "uri": "Untitled.bin"
    }
  ],
  "images": [
    {
      "uri": "a_baseColor.png"
    },
    {
      "uri": "a_occlusionRoughnessMetallic.png"
    },
    {
      "uri": "a_normal.png"
    },
    {
      "uri": "edge_baseColor.png"
    },
    {
      "uri": "edge_occlusionRoughnessMetallic.png"
    },
    {
      "uri": "edge_normal.png"
    },
    {
      "uri": "Edges_baseColor.png"
    },
    {
      "uri": "Edges_occlusionRoughnessMetallic.png"
    },
    {
      "uri": "Edges_normal.png"
    },
    {
      "uri": "Links_baseColor.png"
    },
    {
      "uri": "Links_occlusionRoughnessMetallic.png"
    },
    {
      "uri": "Links_normal.png"
    }
  ],
  "materials": [
    {
      "alphaMode": "OPAQUE",
      "name": "a",
      "normalTexture": {
        "index": 2
      },
      "occlusionTexture": {
        "index": 1
      },
      "pbrMetallicRoughness": {
        "baseColorTexture": {
          "index": 0
        },
        "metallicRoughnessTexture": {
          "index": 1
        }
      }
    },
    {
      "alphaMode": "OPAQUE",
      "name": "edge",
      "normalTexture": {
        "index": 5
      },
      "occlusionTexture": {
        "index": 4
      },
      "pbrMetallicRoughness": {
        "baseColorTexture": {
          "index": 3
        },
        "metallicRoughnessTexture": {
          "index": 4
        }
      }
    },
    {
      "alphaMode": "OPAQUE",
      "name": "Edges",
      "normalTexture": {
        "index": 8
      },
      "occlusionTexture": {
        "index": 7
      },
      "pbrMetallicRoughness": {
        "baseColorTexture": {
          "index": 6
        },
        "metallicRoughnessTexture": {
          "index": 7
        }
      }
    },
    {
      "alphaMode": "OPAQUE",
      "name": "Links",
      "normalTexture": {
        "index": 11
      },
      "occlusionTexture": {
        "index": 10
      },
      "pbrMetallicRoughness": {
        "baseColorTexture": {
          "index": 9
        },
        "metallicRoughnessTexture": {
          "index": 10
        }
      }
    }
  ],
  "meshes": [
    {
      "name": "Cube",
      "primitives": [
        {
          "attributes": {
            "NORMAL": 2,
            "POSITION": 1,
            "TANGENT": 3,
            "TEXCOORD_0": 4
          },
          "indices": 0,
          "material": 3,
          "mode": 4
        }
      ]
    },
    {
      "name": "Cylinder",
      "primitives": [
        {
          "attributes": {
            "NORMAL": 7,
            "POSITION": 6,
            "TANGENT": 8,
            "TEXCOORD_0": 9
          },
          "indices": 5,
          "material": 1,
          "mode": 4
        }
      ]
    },
    {
      "name": "Cylinder.001",
      "primitives": [
        {
          "attributes": {
            "NORMAL": 12,
            "POSITION": 11,
            "TANGENT": 13,
            "TEXCOORD_0": 14
          },
          "indices": 10,
          "material": 2,
          "mode": 4
        }
      ]
    },
    {
      "name": "Cylinder.002",
      "primitives": [
        {
          "attributes": {
            "NORMAL": 17,
            "POSITION": 16,
            "TANGENT": 18,
            "TEXCOORD_0": 19
          },
          "indices": 15,
          "material": 0,
          "mode": 4
        }
      ]
    }
  ],
  "nodes": [
    {
      "children": [
        1,
        3,
        5,
        7
      ],
      "name": "RootNode"
    },
    {
      "children": [
        2
      ],
      "name": "Cube",
      "rotation": [
        -0.707106828689575,
        0.0,
        0.0,
        0.707106709480286
      ],
      "scale": [
        100.0,
        100.0,
        100.0
      ]
    },
    {
      "mesh": 0,
      "name": "Cube"
    },
    {
      "children": [
        4
      ],
      "name": "Cylinder",
      "rotation": [
        -3.09086232164191e-08,
        0.707106828689575,
        0.707106709480286,
        -3.09086161109917e-08
      ],
      "scale": [
        14.4532089233398,
        14.4532089233398,
        2135.27172851562
      ],
      "translation": [
        10.1875047683716,
        1958.26965332031,
        -0.642346322536469
      ]
    },
    {
      "mesh": 1,
      "name": "Cylinder"
    },
    {
      "children": [
        6
      ],
      "name": "Cylinder.001",
      "rotation": [
        -3.09086232164191e-08,
        0.707106828689575,
        0.707106709480286,
        -3.09086196637054e-08
      ],
      "scale": [
        14.4532089233398,
        14.4532089233398,
        2135.33203125
      ],
      "translation": [
        4178.69482421875,
        1958.26965332031,
        8.94304466247559
      ]
    },
    {
      "mesh": 2,
      "name": "Cylinder.001"
    },
    {
      "children": [
        8
      ],
      "name": "Cylinder.002",
      "rotation": [
        0.5,
        0.5,
        0.5,
        0.5
      ],
      "scale": [
        14.4532089233398,
        14.4532089233398,
        2087.9833984375
      ],
      "translation": [
        2096.44848632812,
        4108.17529296875,
        2.85048699378967
      ]
    },
    {
      "mesh": 3,
      "name": "Cylinder.002"
    }
  ],
  "samplers": [
    {
      "magFilter": 9729,
      "minFilter": 9985,
      "wrapS": 10497,
      "wrapT": 10497
    }
  ],
  "scene": 0,
  "scenes": [
    {
      "name": "Scene",
      "nodes": [
        0
      ]
    }
  ],
  "textures": [
    {
      "sampler": 0,
      "source": 0
    },
    {
      "sampler": 0,
      "source": 1
    },
    {
      "sampler": 0,
      "source": 2
    },
    {
      "sampler": 0,
      "source": 3
    },
    {
      "sampler": 0,
      "source": 4
    },
    {
      "sampler": 0,
      "source": 5
    },
    {
      "sampler": 0,
      "source": 6
    },
    {
      "sampler": 0,
      "source": 7
    },
    {
      "sampler": 0,
      "source": 8
    },
    {
      "sampler": 0,
      "source": 9
    },
    {
      "sampler": 0,
      "source": 10
    },
    {
      "sampler": 0,
      "source": 11
    }
  ]
}